<?xml version="1.0" encoding="UTF-8"?>
<svg version="1.1" viewBox="0 0 1600 1248" width="1280" height="1280" xmlns="http://www.w3.org/2000/svg">
<path transform="translate(172 -1.66)" d="m0 0c1.63-0 3.26-0.01 4.89-0.02 3.4-0.01 6.8 0.02 10.2 0.09 4.33 0.09 8.64 0.06 13 0.01 3.36-0.03 6.73-0.01 10.1 0.03 1.59 0.01 3.18 0.01 4.77-0.01 12.9-0.11 19.8 3.74 29 12.6 1.11 1.01 2.23 2.03 3.34 3.04 6.39 5.93 11.4 12.4 16.1 19.7 0.4 0.62 0.8 1.24 1.21 1.87 1.33 2.36 1.33 2.36 2.81 5.83 2.47 5.55 4.4 9.6 10.2 12.1 3.65 0.88 7.34 1.31 11.1 1.65 3.33 0.29 6.63 0.74 9.94 1.17 1.68 0.22 3.37 0.43 5.06 0.64 7.75 0.95 15.3 2.5 22.9 4.34 1.21 0.29 2.42 0.59 3.67 0.89 54.4 13.4 106 34.2 155 62.7 1 0.57 1.99 1.15 3.01 1.74 16.2 9.41 31.7 19.6 47 30.3 0.7 0.48 1.4 0.96 2.11 1.46 16.5 11.5 32.4 23.9 48 36.7 1.36 1.12 1.36 1.12 2.75 2.26 4.64 3.81 9.28 7.63 13.9 11.4 5.75 4.74 11.5 9.46 17.3 14.2 1.71 1.39 3.42 2.79 5.13 4.18 1.35 1.11 1.35 1.11 2.73 2.23 2.42 1.98 4.82 3.98 7.23 5.98 6.99 5.82 14 11.5 21.4 16.8 4.09 2.98 7.96 6.22 11.8 9.46 3.38 2.8 6.77 5.59 10.2 8.38 1.48 1.21 2.95 2.42 4.42 3.63 5.02 4.14 10 8.25 15.1 12.4 2.76 2.25 5.52 4.51 8.28 6.77 1.75 1.43 3.51 2.87 5.26 4.3 6.41 5.24 12.8 10.5 19.2 15.8 5.75 4.74 11.5 9.46 17.3 14.2 3.12 2.54 6.23 5.09 9.34 7.63 1.21 1 2.43 1.99 3.64 2.98 14.6 11.9 14.6 11.9 20.2 17.1 4.84 4.43 9.95 8.43 15.1 12.4 2.43 1.89 4.83 3.8 7.21 5.75 10.1 8.27 20.7 15.8 31.5 23.1 0.78 0.53 1.56 1.06 2.36 1.61 24.8 16.9 50.8 31.8 77.6 45.4 1.02 0.51 2.03 1.02 3.07 1.54 14 7.04 28.2 13.1 43 18.4 3.97 1.44 7.92 2.94 11.9 4.45 5.02 1.9 10.1 3.77 15.1 5.63 1.07 0.39 2.15 0.79 3.25 1.2 20.2 7.46 40.3 12.9 61.9 13 0.86 0.01 1.71 0.01 2.59 0.02 1.79 0.01 3.59 0.01 5.39 0.02 2.68 0.01 5.36 0.04 8.04 0.07 15.3 0.09 30.4-1.39 45-6.13 0.83-0.25 1.66-0.51 2.51-0.78 24.2-7.71 48.2-19.4 67.2-36.4 0.86-0.77 1.72-1.53 2.61-2.32 1.7-1.52 3.38-3.04 5.07-4.58 2.05-1.85 4.14-3.64 6.26-5.42 11.2-9.84 19.2-21.2 27.1-33.7 0.61-0.97 1.22-1.94 1.85-2.94 15.8-25.1 30.4-50.8 44.2-77.1 0.58-1.1 1.16-2.2 1.75-3.34 13.5-25.9 25.4-52.6 35.4-80.1 14.6-40.2 35.8-78 60.9-113 0.53-0.73 1.05-1.45 1.59-2.19 7.03-9.67 14.5-18.9 22.4-27.8 0.71-0.79 0.71-0.79 1.42-1.6 6.24-6.96 12.7-13.6 19.3-20.3l2.12-2.12c4.55-4.54 9.26-8.82 14.1-13 1.12-0.99 2.24-1.97 3.36-2.96 7.87-6.9 16-13.2 24.6-19 0.93-0.64 0.93-0.64 1.88-1.29 3.78-2.58 7.58-5.12 11.4-7.61 1.49-0.96 2.96-1.95 4.44-2.94 14-8.82 30.7-14.8 46.8-18.4 1.24-0.36 1.24-0.36 2.5-0.72l1-2h75v84h-2c-0.33 1.15-0.66 2.31-1 3.5-8.17 24.2-24.9 41.5-45 56.5-0.57 0.43-1.15 0.86-1.74 1.31-11.7 8.71-24 16.6-37.3 22.7-0.98 0.45-0.98 0.45-1.98 0.92-7.91 3.65-15.8 7.24-24 10.5-35.9 14.3-66.5 37.8-91.1 67.6-0.53 0.64-1.06 1.28-1.61 1.94-16.7 20.1-32.6 40.8-45.8 63.4-0.56 0.94-1.11 1.88-1.68 2.85-6.85 11.9-12.2 24.3-17.2 37.1-1.09 2.83-2.2 5.65-3.3 8.48-0.58 1.49-1.17 2.98-1.75 4.47-26.7 68.4-26.7 68.4-46.2 98.6-1.78 2.78-3.5 5.59-5.23 8.4-7.49 12.2-15.4 24.3-25.2 34.7-1.84 1.96-3.54 3.98-5.25 6.05-7.9 9.01-17.8 15.9-27.6 22.7-5.99 4.16-11.6 8.58-17.2 13.4-1.25 1.06-1.25 1.06-2.52 2.15-5.84 4.9-5.84 4.9-10.5 10.8 0.29 4.72 2.78 7.95 5.44 11.7 36.9 53.6 51.6 117 56.8 181 0.09 1.06 0.18 2.12 0.26 3.21 1.49 18.4 2.11 36.5 1.55 54.9-0.03 1.27-0.07 2.55-0.11 3.87-0.2 6.2-0.42 12.4-0.66 18.6-1.46 39.9 1.65 75.3 28.8 107 1.88 1.92 3.78 3.79 5.75 5.62 1.25 1.38 1.25 1.38 1.25 3.38 0.87 0.37 0.87 0.37 1.76 0.75 2.57 1.43 4.12 3.04 6.12 5.18 5.33 5.45 11.2 9.97 17.2 14.6 3.23 2.5 6.4 5.09 9.58 7.65 5.34 4.3 10.8 8.42 16.3 12.4 1.97 1.43 1.97 1.43 2.97 2.43 0.12 2.43 0.17 4.83 0.18 7.27 0.02 1.53 0.04 3.06 0.06 4.6 0.01 0.81 0.03 1.61 0.04 2.44 0.53 33.2 8.23 60.3 27.8 87.5 9.35 13.1 16.7 24.5 14.9 41.2-1.35 6.53-3.67 11.7-7.57 17.1-3.89 6.04-4.55 11-4.74 18.1-0.06 1.14-0.11 2.28-0.17 3.45-0.13 2.46-0.24 4.92-0.34 7.38-0.29 6.49-0.7 13-1.11 19.4-0.13 2.15-0.25 4.3-0.37 6.45-0.08 1.3-0.15 2.61-0.23 3.95-0.07 1.16-0.13 2.32-0.2 3.52-0.27 2.63-0.27 2.63-1.27 3.63-1.34 0.08-2.69 0.1-4.03 0.09h-2.21c-1.39-0.02-1.39-0.02-2.82-0.03-1.59-0.01-3.19-0.02-4.78-0.03-1.39-0.01-2.77-0.02-4.16-0.03-0.16-13.7 0.2-27.3 0.96-41 0.11-2.2 0.22-4.39 0.31-6.59 0.14-3.23 0.31-6.46 0.49-9.69 0.04-0.98 0.07-1.95 0.11-2.96 0.38-5.84 1.42-9.11 5.64-13.2 4.57-4.66 5.96-10.6 6.81-16.8-0.95-8.17-7.32-15.3-11.8-21.9-6.99-10.2-13.6-20.4-18.5-31.8-0.26-0.63-0.53-1.25-0.8-1.89-3.37-7.98-5.87-16.1-8.01-24.5-0.21-0.81-0.41-1.61-0.63-2.45-2.54-10.5-2.78-21-3.12-31.8-0.06-1.93-0.06-1.93-0.13-3.91-0.1-3.15-0.21-6.31-0.31-9.46-0.76-0.29-1.52-0.58-2.3-0.88-3.4-1.42-6.24-3.41-9.2-5.56-0.6-0.44-1.21-0.88-1.84-1.33-5.92-4.32-11.5-8.99-17-13.8-1.15-1.01-2.3-2-3.47-3-31.7-27.4-52.2-59-55.7-101-0.54-7.4-0.61-14.8-0.58-22.2v-2.15c0.01-9.25 0.14-18.5 0.39-27.7 0.02-0.94 0.04-1.87 0.07-2.83 0.12-4.56 0.25-9.11 0.4-13.7 0.59-19.8-0.72-39.5-2.55-59.2-0.09-0.96-0.17-1.91-0.26-2.89-1.42-15.2-3.04-30.3-5.93-45.4-0.18-1-0.37-1.99-0.56-3.01-8.09-41.6-24.2-86-50.9-119-0.6-0.76-1.2-1.52-1.81-2.3-1.2-1.49-2.41-2.97-3.64-4.44-4.03-5.04-4.03-5.04-4.45-8.97 1.99-4.51 5.13-7.58 8.57-11.1 0.67-0.69 1.34-1.38 2.03-2.1 2.8-2.9 5.65-5.76 8.5-8.61 1.32-1.32 2.63-2.66 3.9-4.04 7.61-8.11 17-14.5 26-20.8 17.4-12.1 30.5-26.5 42-44.4 1.38-2.11 2.78-4.19 4.2-6.27 21.3-31.4 35.9-64.7 49.4-100 0.56-1.45 0.56-1.45 1.12-2.93 1.83-4.75 3.66-9.51 5.47-14.3 5.99-15.7 12.2-31.2 20.8-45.7 0.6-1.01 1.2-2.02 1.81-3.06 5.37-8.96 11.2-17.5 17.4-25.9 0.81-1.11 1.62-2.22 2.43-3.32 7.29-9.86 15.1-19.2 23.1-28.5 2.99-3.46 5.89-6.98 8.75-10.6 27.1-33.4 62-56.7 102-72.5 23-9.24 44.1-22.1 63-38.1 1.22-1.02 1.22-1.02 2.46-2.07 1.88-1.61 3.72-3.25 5.54-4.93 0.89-0.81 0.89-0.81 1.79-1.63 13.3-12.6 21-29.4 21.6-47.8-0.38-13.5-2.57-27.3-12.6-37.1-9.52-7.69-21.1-7.71-32.8-6.56-27.6 3.92-52.4 17.9-74 35-0.98 0.77-1.97 1.54-2.99 2.34-6.18 4.95-12 10.2-17.8 15.7-2.3 2.16-4.65 4.23-7.04 6.29-4.74 4.12-9.19 8.51-13.6 13l-2.55 2.55c-5.76 5.81-11 11.7-16 18.2-1.58 1.85-3.16 3.71-4.75 5.56-11.6 14-21.5 29.1-31.2 44.4-0.38 0.59-0.76 1.18-1.15 1.79-6.89 10.7-12.9 21.9-18.8 33.2-0.46 0.88-0.93 1.77-1.42 2.68-8.11 15.5-14.2 31.6-20.4 47.9-17.9 47.5-40.4 93.2-67.6 136-2.53 4-5.01 8.03-7.49 12.1-16.7 27.1-16.7 27.1-27.2 38.2-0.9 1.01-1.81 2.03-2.71 3.05-0.45 0.51-0.91 1.02-1.38 1.55-1.28 1.45-2.56 2.89-3.84 4.34-2.07 2.06-2.07 2.06-4.07 2.06v2c-1.29 1.34-1.29 1.34-3.18 2.93-1.1 0.93-1.1 0.93-2.21 1.87-0.86 0.73-1.72 1.45-2.61 2.2-1.02 0.88-2.05 1.77-3.07 2.66-6.4 5.52-12.8 10.7-19.9 15.3-0.97 0.65-0.97 0.65-1.97 1.31-47 31.2-103 41-158 30.3-79.5-16.6-160-63.3-223-113-1.67-1.29-3.34-2.57-5.01-3.85-6.06-4.64-12.1-9.35-18-14.2-0.86-0.7-1.72-1.4-2.6-2.11-4.4-3.59-8.77-7.2-13.1-10.9-4.99-4.27-10-8.42-15.2-12.4-5.51-4.28-10.8-8.74-16.1-13.3-3.98-3.43-8.02-6.75-12.2-10-3.78-3.02-7.52-6.11-11.2-9.19-0.75-0.61-1.49-1.23-2.26-1.86-1.45-1.2-2.9-2.4-4.35-3.59-2.48-2.05-4.97-4.08-7.46-6.11-5.3-4.34-10.6-8.7-15.9-13.1-4.93-4.07-9.89-8.11-14.9-12.1-4.84-3.92-9.63-7.89-14.4-11.9-4.3-3.67-8.67-7.22-13.1-10.7-10.5-8.19-20.8-16.7-30.9-25.4-4.95-4.22-10-8.27-15.2-12.3-3.78-2.95-7.48-5.97-11.2-9.05-12.6-10.6-25.7-20.4-39-30-0.65-0.48-1.31-0.95-1.99-1.44-11.9-8.52-24.4-16.1-36.9-23.7-2.78-1.69-5.56-3.4-8.33-5.1-49.5-30.3-103-53.6-160-66.8-1.13-0.27-2.26-0.54-3.43-0.81-19.9-4.62-40.2-8.68-60.6-9.72-1.96-0.47-1.96-0.47-4.21-3.72-0.6-1.58-1.18-3.16-1.75-4.75-4.97-11.3-10-22.5-18.7-31.5-1.29-1.52-1.29-1.52-1.29-3.52-0.59-0.27-1.19-0.54-1.81-0.82-2.16-1.17-3.54-2.38-5.19-4.18-16.5 6.2-24.3 19.9-31.4 35.2-0.86 1.91-1.72 3.83-2.57 5.75h-2c-0.29-0.56-0.58-1.11-0.88-1.68-12-23.6-12-23.6-33.1-38.3-11.1 11.6-19.6 28-22.7 43.8-1.45 3.68-2.86 4.6-6.42 6.21-0.69 0.29-1.38 0.57-2.1 0.87-1.45 0.67-2.91 1.34-4.36 2.02-0.74 0.35-1.47 0.69-2.23 1.04-9.49 4.68-18.2 11.2-26.2 18.1-1.09 0.8-2.18 1.59-3.28 2.39-4.29 3.37-8.2 6.52-9.14 12.1-0.17 3.83-0.06 7.56 0.34 11.4 0.7 7.72-1.05 12.1-5.92 18.1-4.18 4.69-8.68 9.06-13.2 13.4-1.2 1.18-2.4 2.37-3.6 3.55-2.19 2.15-4.38 4.3-6.58 6.45-0.87 0.85-1.74 1.69-2.64 2.57-0.86 0.82-0.86 0.82-1.73 1.66-3.47 3.66-4 7.29-4.52 12.1-0.12 0.69-0.24 1.38-0.37 2.09-0.23 2.38-0.19 3.89 0.62 6.16 2.98 2.93 6.4 4.91 10 7 1.29 0.78 1.29 0.78 2.6 1.58 1.71 1.04 3.42 2.07 5.14 3.1 9.47 5.63 17.6 11.4 25.3 19.3 1.14 1.09 1.14 1.09 2.29 2.21 3.06 2.98 5.89 5.98 8.53 9.35 5.03 6.01 12.6 10.6 20.2 12.4 6.08 0.36 12-0.24 18-1.1 1.7-0.23 3.39-0.45 5.08-0.68 2.62-0.36 5.24-0.72 7.86-1.09 23.6-3.26 45.9-3.81 66.1 10.9 8.05 7.18 12.1 17.5 13.2 28 0.55 12.2-2.69 26.7-10.5 36.3-5.94 6.3-13.8 9.21-22.4 9.93-4.47 0.08-8.94 0.13-13.4 0.13-0.84 0.01-1.67 0.01-2.54 0.01-16.6 0.03-32.9-1.59-49.4-3.75-30-3.86-61 1.13-85.8 19.7-1.43 1.19-2.85 2.4-4.25 3.63-0.76 0.66-1.52 1.33-2.3 2.02-10.9 10.1-16.5 22.1-17.1 37-0.28 15.6 6.66 26.6 17 37.7 9.65 9.17 20.9 12 33.9 11.6 4.39-0.43 8.34-1.09 11.5-4.34 2.9-5.41 3.53-10.2 3.94-16.2 1.09-12 3.47-21.6 13.1-29.8 11.6-5.86 28.2-0.63 39.9 2.93 21.2 7.48 41.7 18.9 61 30.4 45.3 26.9 106 35.4 158 22.8 8.26-2.19 15.9-5.36 23.5-9.16 1.02-0.5 2.04-0.99 3.08-1.5 5.81-2.99 10.8-6.54 15.7-10.8 2.19-1.73 2.19-1.73 4.35-2.72 2.38-1.31 2.7-2.57 3.84-5.01 1.44-1.73 2.92-3.41 4.44-5.07 1.18-1.28 1.18-1.28 2.37-2.59 1.7-1.82 3.42-3.6 5.19-5.34 0.67 0.61 1.34 1.23 2.02 1.87 5.63 5.17 11.4 10.1 17.3 14.9 3.49 2.88 6.82 5.93 10.2 8.97 2.57 2.29 5.22 4.46 7.9 6.62 4.01 3.25 7.85 6.61 11.6 10.1 5.48 5.08 11.2 9.82 17 14.5 12.6 10.2 24.9 20.7 37.1 31.3 4.41 3.84 8.82 7.66 13.2 11.5 2.38 2.06 4.74 4.13 7.1 6.21 15 13.2 31.3 24.1 48.6 34 0.96 0.56 0.96 0.56 1.94 1.13 23.8 13.9 50.9 22 77.6 28.1 3.65 0.84 7.29 1.7 10.9 2.56 13.7 3.19 27.3 5.84 41.2 7.68 1.17 0.16 1.17 0.16 2.35 0.32 21.4 2.86 43 4.77 64.5 6.75 45.2 4.15 45.2 4.15 67.2 7.16 0.76 0.1 1.52 0.2 2.31 0.31 44.2 6.08 81.5 22.5 111 57 0.85 0.98 0.85 0.98 1.71 1.99 8.15 9.57 15.7 19.3 22.3 30 0.63 1.01 0.63 1.01 1.27 2.04 10.4 17 18.9 34.2 24.6 53.3 15.6 52.9 41.5 101 77.7 143 6.45 7.46 12.8 15 19 22.7 3.65 4.47 7.32 8.92 11 13.4 3.05 3.7 6.1 7.4 9.14 11.1 3.45 4.2 6.91 8.4 10.4 12.6 0.51 0.61 1.02 1.22 1.54 1.86 8.13 9.83 16.5 18.7 26.5 26.7 4.48 3.72 8.71 7.7 13 11.7 2.96 2.76 5.99 5.43 9.05 8.08 2.34 2.04 4.65 4.12 6.95 6.21 5.34 4.81 10.7 9.56 16.2 14.2 5.76 4.9 11.5 9.83 17 15 4.76 4.41 9.65 8.52 14.7 12.5 2.08 1.78 2.08 1.78 3.08 3.78 0.2 2.6 0.35 5.19 0.45 7.8 0.04 0.8 0.07 1.61 0.11 2.44 0.08 1.76 0.16 3.52 0.23 5.29 0.12 2.81 0.24 5.62 0.37 8.43 0.26 6.02 0.52 12 0.78 18 1.22 30.1 1.22 30.1 3.08 60.2 0.08 0.99 0.15 1.99 0.22 3.01 1.96 24 10.9 47.1 29.5 63.1 15.6 12.2 32.1 19.8 52.3 18.7 1.74 5.19 0.49 10.6 0 16h15v1c-1.72 0.34-3.45 0.67-5.18 1-0.97 0.18-1.93 0.37-2.92 0.56-2.69 0.41-5.18 0.52-7.9 0.44v3h-13l-1-3c-0.57 0.02-1.14 0.04-1.73 0.06-19.2-0.47-39.8-14.1-53.3-27.1v-2c-0.99-0.33-1.98-0.66-3-1-21.2-19-28.2-50.6-29.7-77.7-0.16-3.39-0.3-6.79-0.44-10.2-0.08-1.84-0.16-3.68-0.25-5.52-0.21-4.8-0.42-9.59-0.62-14.4-0.24-5.81-0.5-11.6-0.76-17.4-0.2-4.52-0.4-9.04-0.59-13.6-0.17-3.98-0.35-7.96-0.54-11.9-0.07-1.49-0.14-2.98-0.2-4.47-0.1-2.08-0.2-4.17-0.31-6.25-0.06-1.18-0.12-2.36-0.18-3.57-0.65-4.63-2.1-6-5.79-8.82-0.81-0.65-0.81-0.65-1.64-1.32-1.64-1.31-3.31-2.55-4.99-3.8-1.77-1.43-3.54-2.87-5.31-4.32-0.89-0.71-1.79-1.43-2.71-2.17-3.61-3.05-7.04-6.27-10.5-9.51-5.07-4.8-10.2-9.37-15.7-13.7-3.95-3.2-7.78-6.52-11.6-9.84-3.45-2.97-6.94-5.85-10.5-8.68-15.6-12.7-29.1-27.1-41.7-42.8-2.12-2.63-4.24-5.26-6.37-7.88-0.55-0.68-1.11-1.36-1.68-2.07-3.98-4.9-8.04-9.73-12.1-14.5-3.33-3.92-6.54-7.91-9.73-11.9-2.42-2.98-4.9-5.9-7.4-8.82-5.76-6.77-11.3-13.7-16.7-20.8-0.48-0.63-0.96-1.25-1.45-1.89-17.6-22.8-32.7-47.3-45.6-73.1-0.45-0.92-0.9-1.83-1.37-2.77-9.68-19.8-17.6-40.5-23.3-61.8-8.07-30-27.1-58.7-48.3-81.2-2.1-2.25-2.1-2.25-4.53-5.38-21.9-24.5-53.4-36-85-40.2-0.74-0.1-1.48-0.2-2.24-0.3-29.7-4.03-59.6-6.88-89.4-9.64-37.3-3.45-73.3-8.79-110-17.2-2.88-0.66-5.76-1.29-8.65-1.93-48.3-10.8-89.8-35.6-127-67.9-2.93-2.56-5.89-5.09-8.85-7.61-7.99-6.85-15.9-13.8-23.9-20.6l-5.67-4.92c-0.62-0.53-1.23-1.07-1.87-1.62-4.86-4.21-9.75-8.39-14.6-12.6-3.42-2.93-6.78-5.9-10.1-8.93-4.24-3.85-8.65-7.46-13.1-11.1-2.64-2.19-5.18-4.45-7.72-6.75-3.56-3.24-7.18-6.41-10.9-9.5-0.89-0.75-1.77-1.49-2.68-2.25-2.96-2.17-2.96-2.17-6.45-2.75-1.8 1.34-1.8 1.34-3.43 3.37-22.8 24.2-61 33.7-93.2 34.8-18.3 0.45-36.3-0.15-54.4-3.12-0.86-0.14-1.72-0.28-2.61-0.43-33.2-5.55-62.5-18.7-91.6-35.2-1.93-1.09-3.87-2.18-5.8-3.28-1.32-0.74-2.63-1.48-3.94-2.23-17.9-10.1-36.5-17.4-57-19.9-0.09 0.81-0.18 1.63-0.27 2.47-0.35 3.09-0.72 6.17-1.11 9.26-0.23 1.96-0.45 3.93-0.67 5.9-1.42 11.2-4.51 21.8-13.8 29-6.99 4.45-14 6.11-22.2 6.4-0.88 0.04-1.77 0.08-2.68 0.12-18.3 0.44-33.1-6.34-46.4-18.8-9.65-10.2-18.3-22.6-20.5-36.8-0.16-0.86-0.32-1.73-0.48-2.62l-2-1c-0.05-2.8-0.09-5.59-0.12-8.38-0.02-0.79-0.03-1.59-0.05-2.4-0.02-2.08 0.07-4.15 0.17-6.22l2-2c0.6-2.2 1.13-4.41 1.63-6.63 3.36-13.5 9.44-24.6 19.4-34.4 0.62-0.69 1.23-1.37 1.86-2.07 12.1-13.1 29.8-20.7 46.3-26.2 1.5-0.5 1.5-0.5 3.02-1.02 13.3-4.33 26.7-6.13 40.7-5.48 0.95 0.05 1.91 0.09 2.89 0.13 9.58 0.51 19.1 1.6 28.6 2.69 10.9 1.23 21.8 2.38 32.8 2.87 0.96 0.05 1.91 0.1 2.9 0.15 7.82 0.27 16.9 0.45 23-5.02 3.67-7.85 4.56-18 2.38-26.4-2.33-5.43-6.13-9-11.4-11.6-16.3-5.73-31.8-4.03-48.6-1.5-34.3 5.16-34.3 5.16-50.6-5.63-7.42-5.61-14.5-12-20.6-19.1-10.1-11.8-23.6-19.5-37.1-27.1-6.31-3.77-11.6-9.25-13.8-16.4-2.36-13 0.05-25.3 7.2-36.3 4.75-6.27 10.6-11.6 16.2-17 2.47-2.36 4.92-4.73 7.37-7.12 0.56-0.53 1.12-1.06 1.7-1.6 3.07-2.99 4.82-5.06 5.05-9.4-0.15-2.26-0.37-4.51-0.62-6.75-0.57-7.56-0.2-12.6 4.48-18.7 2.3-2.62 4.69-5.11 7.14-7.58 0.78-0.83 1.56-1.66 2.36-2.51 10.1-10.5 22.8-20.9 36.3-26.6 3.83-1.64 5.85-2.77 7.64-6.63 0.77-2.36 1.51-4.72 2.23-7.09 3.56-10.8 10.7-22.1 18.3-30.6 1.65-1.91 3.15-3.8 4.66-5.82 7.88-10.1 14.2-11.7 26.7-11.4z" fill="#000001"/>
<path transform="translate(1228 402)" d="m0 0c1.45 0.03 1.45 0.03 2.94 0.06-0.32 2.88-0.32 2.88-1 6l-3 2c-0.99-2.31-1.98-4.62-3-7 1-1 1-1 4.06-1.06z" fill="#000100"/>
<path transform="translate(811,591)" d="m0 0 2 5h-7l-1-2c2.62-3 2.62-3 6-3z" fill="#000002"/>
</svg>
